<?xml version="1.0" standalone="no"?>
<!DOCTYPE svg PUBLIC "-//W3C//DTD SVG 20010904//EN"
 "http://www.w3.org/TR/2001/REC-SVG-20010904/DTD/svg10.dtd">
<svg version="1.0" xmlns="http://www.w3.org/2000/svg"
 width="287.000000pt" height="176.000000pt" viewBox="0 0 287.000000 176.000000"
 preserveAspectRatio="xMidYMid meet">
<metadata>
Created by potrace 1.16, written by Peter Selinger 2001-2019
</metadata>
<g transform="translate(0.000000,176.000000) scale(0.100000,-0.100000)"
fill="#000000" stroke="none">
<path d="M765 1610 c-119 -25 -237 -95 -308 -182 -20 -24 -51 -75 -69 -114
-30 -63 -33 -79 -36 -186 -4 -99 -1 -126 17 -181 54 -161 203 -295 376 -337
28 -6 95 -12 151 -12 119 0 206 25 298 87 61 40 145 128 198 206 18 27 36 49
39 49 3 0 26 -28 50 -62 95 -137 227 -236 354 -268 71 -17 234 -14 303 5 229
66 381 263 382 490 0 142 -47 254 -150 357 -116 116 -263 168 -432 154 -180
-15 -330 -105 -458 -273 l-48 -63 -41 55 c-97 129 -207 213 -331 255 -72 24
-227 35 -295 20z m253 -191 c29 -10 76 -35 104 -55 48 -36 152 -157 190 -222
l18 -29 -56 -84 c-72 -109 -155 -193 -224 -227 -50 -24 -66 -27 -165 -27 -100
0 -115 2 -167 28 -126 62 -190 159 -196 294 -4 71 -1 89 21 137 81 177 276
253 475 185z m1031 21 c259 -43 384 -324 232 -526 -125 -167 -379 -195 -544
-60 -49 39 -145 161 -184 233 l-17 32 47 69 c98 143 221 234 341 252 28 4 53
8 56 9 3 0 34 -4 69 -9z"/>
<path d="M710 1125 l0 -35 175 0 175 0 0 35 0 35 -175 0 -175 0 0 -35z"/>
<path d="M1920 1220 l0 -50 -50 0 -50 0 0 -45 0 -45 50 0 50 0 0 -50 0 -50 44
0 45 0 3 48 3 47 48 3 47 3 0 45 0 44 -50 0 -50 0 0 50 0 50 -45 0 -45 0 0
-50z"/>
<path d="M2321 482 c-56 -28 -75 -63 -79 -146 -7 -135 50 -206 152 -193 84 12
126 72 126 182 0 86 -21 133 -70 157 -44 23 -86 23 -129 0z m95 -50 c23 -15
34 -53 34 -115 0 -77 -24 -117 -69 -117 -46 0 -65 32 -69 113 -3 62 -1 76 18
100 21 27 61 36 86 19z"/>
<path d="M461 458 c-23 -75 -91 -300 -91 -304 0 -2 15 -4 33 -4 28 0 34 4 42
33 10 31 12 32 72 35 l62 3 9 -33 c7 -29 13 -33 45 -36 20 -2 37 0 37 5 0 4
-11 42 -24 83 -14 41 -37 114 -51 163 l-26 87 -49 0 c-46 0 -49 -2 -59 -32z"/>
<path d="M710 321 l0 -171 35 0 35 0 0 71 c0 67 1 70 23 67 16 -2 31 -21 56
-70 33 -66 35 -68 73 -68 l38 0 -35 69 c-19 38 -39 72 -45 76 -14 9 -12 25 3
25 49 0 70 102 29 142 -20 20 -35 23 -117 26 l-95 4 0 -171z"/>
<path d="M1010 320 l0 -170 75 0 c99 0 149 24 176 83 24 54 24 130 -1 185 -25
56 -63 72 -170 72 l-80 0 0 -170z m163 100 c32 -26 45 -94 28 -151 -13 -42
-50 -69 -96 -69 l-25 0 0 120 0 120 34 0 c18 0 45 -9 59 -20z"/>
<path d="M1322 345 c3 -140 4 -145 28 -170 35 -34 113 -44 163 -20 56 26 67
62 67 209 l0 126 -35 0 -34 0 -3 -137 c-3 -136 -3 -137 -29 -152 -22 -12 -29
-12 -55 0 l-29 14 -3 138 -3 137 -35 0 -35 0 3 -145z"/>
<path d="M1650 465 c0 -22 4 -25 40 -25 l40 0 0 -120 0 -120 -40 0 c-36 0 -40
-2 -40 -25 l0 -25 110 0 110 0 0 25 c0 23 -4 25 -40 25 l-40 0 0 120 0 120 40
0 c36 0 40 3 40 25 l0 25 -110 0 -110 0 0 -25z"/>
<path d="M1940 320 l0 -170 30 0 30 0 0 115 c0 70 4 115 10 115 6 0 10 -5 10
-10 0 -6 22 -58 49 -115 l50 -105 40 0 41 0 0 170 0 170 -30 0 -30 0 -1 -117
-1 -118 -55 118 -56 117 -44 0 -43 0 0 -170z"/>
</g>
</svg>
